<svg width="113" height="24" viewBox="0 0 113 24" fill="none" xmlns="http://www.w3.org/2000/svg">
<path d="M41.104 18L38.448 13.44H36.688V18H35.232V6.848H38.832C39.6747 6.848 40.384 6.992 40.96 7.28C41.5467 7.568 41.984 7.95733 42.272 8.448C42.56 8.93867 42.704 9.49867 42.704 10.128C42.704 10.896 42.48 11.5733 42.032 12.16C41.5947 12.7467 40.9333 13.136 40.048 13.328L42.848 18H41.104ZM36.688 12.272H38.832C39.6213 12.272 40.2133 12.08 40.608 11.696C41.0027 11.3013 41.2 10.7787 41.2 10.128C41.2 9.46667 41.0027 8.95467 40.608 8.592C40.224 8.22933 39.632 8.048 38.832 8.048H36.688V12.272ZM48.7904 18.144C47.969 18.144 47.2224 17.9573 46.5504 17.584C45.889 17.2107 45.3664 16.6827 44.9824 16C44.609 15.3067 44.4224 14.5067 44.4224 13.6C44.4224 12.704 44.6144 11.9147 44.9984 11.232C45.393 10.5387 45.9264 10.0107 46.5984 9.648C47.2704 9.27467 48.0224 9.088 48.8544 9.088C49.6864 9.088 50.4384 9.27467 51.1104 9.648C51.7824 10.0107 52.3104 10.5333 52.6944 11.216C53.089 11.8987 53.2864 12.6933 53.2864 13.6C53.2864 14.5067 53.0837 15.3067 52.6784 16C52.2837 16.6827 51.745 17.2107 51.0624 17.584C50.3797 17.9573 49.6224 18.144 48.7904 18.144ZM48.7904 16.864C49.313 16.864 49.8037 16.7413 50.2624 16.496C50.721 16.2507 51.089 15.8827 51.3664 15.392C51.6544 14.9013 51.7984 14.304 51.7984 13.6C51.7984 12.896 51.6597 12.2987 51.3824 11.808C51.105 11.3173 50.7424 10.9547 50.2944 10.72C49.8464 10.4747 49.361 10.352 48.8384 10.352C48.305 10.352 47.8144 10.4747 47.3664 10.72C46.929 10.9547 46.577 11.3173 46.3104 11.808C46.0437 12.2987 45.9104 12.896 45.9104 13.6C45.9104 14.3147 46.0384 14.9173 46.2944 15.408C46.561 15.8987 46.913 16.2667 47.3504 16.512C47.7877 16.7467 48.2677 16.864 48.7904 16.864ZM62.9768 9.232V18H61.5208V16.704C61.2434 17.152 60.8541 17.504 60.3528 17.76C59.8621 18.0053 59.3181 18.128 58.7208 18.128C58.0381 18.128 57.4248 17.9893 56.8808 17.712C56.3368 17.424 55.9048 16.9973 55.5848 16.432C55.2754 15.8667 55.1208 15.1787 55.1208 14.368V9.232H56.5608V14.176C56.5608 15.04 56.7794 15.7067 57.2168 16.176C57.6541 16.6347 58.2514 16.864 59.0088 16.864C59.7874 16.864 60.4008 16.624 60.8488 16.144C61.2968 15.664 61.5208 14.9653 61.5208 14.048V9.232H62.9768ZM69.7071 9.072C70.7738 9.072 71.6378 9.39733 72.2991 10.048C72.9605 10.688 73.2911 11.616 73.2911 12.832V18H71.8511V13.04C71.8511 12.1653 71.6325 11.4987 71.1951 11.04C70.7578 10.5707 70.1605 10.336 69.4031 10.336C68.6351 10.336 68.0218 10.576 67.5631 11.056C67.1151 11.536 66.8911 12.2347 66.8911 13.152V18H65.4351V9.232H66.8911V10.48C67.1791 10.032 67.5685 9.68533 68.0591 9.44C68.5605 9.19467 69.1098 9.072 69.7071 9.072ZM75.1255 13.584C75.1255 12.688 75.3068 11.904 75.6695 11.232C76.0322 10.5493 76.5282 10.0213 77.1575 9.648C77.7975 9.27467 78.5122 9.088 79.3015 9.088C79.9842 9.088 80.6188 9.248 81.2055 9.568C81.7922 9.87733 82.2402 10.288 82.5495 10.8V6.16H84.0215V18H82.5495V16.352C82.2615 16.8747 81.8348 17.3067 81.2695 17.648C80.7042 17.9787 80.0428 18.144 79.2855 18.144C78.5068 18.144 77.7975 17.952 77.1575 17.568C76.5282 17.184 76.0322 16.6453 75.6695 15.952C75.3068 15.2587 75.1255 14.4693 75.1255 13.584ZM82.5495 13.6C82.5495 12.9387 82.4162 12.3627 82.1495 11.872C81.8828 11.3813 81.5202 11.008 81.0615 10.752C80.6135 10.4853 80.1175 10.352 79.5735 10.352C79.0295 10.352 78.5335 10.48 78.0855 10.736C77.6375 10.992 77.2802 11.3653 77.0135 11.856C76.7468 12.3467 76.6135 12.9227 76.6135 13.584C76.6135 14.256 76.7468 14.8427 77.0135 15.344C77.2802 15.8347 77.6375 16.2133 78.0855 16.48C78.5335 16.736 79.0295 16.864 79.5735 16.864C80.1175 16.864 80.6135 16.736 81.0615 16.48C81.5202 16.2133 81.8828 15.8347 82.1495 15.344C82.4162 14.8427 82.5495 14.2613 82.5495 13.6ZM95.8036 18.112C94.769 18.112 93.825 17.872 92.9716 17.392C92.1183 16.9013 91.441 16.224 90.9396 15.36C90.449 14.4853 90.2036 13.504 90.2036 12.416C90.2036 11.328 90.449 10.352 90.9396 9.488C91.441 8.61333 92.1183 7.936 92.9716 7.456C93.825 6.96533 94.769 6.72 95.8036 6.72C96.849 6.72 97.7983 6.96533 98.6516 7.456C99.505 7.936 100.177 8.608 100.668 9.472C101.158 10.336 101.404 11.3173 101.404 12.416C101.404 13.5147 101.158 14.496 100.668 15.36C100.177 16.224 99.505 16.9013 98.6516 17.392C97.7983 17.872 96.849 18.112 95.8036 18.112ZM95.8036 16.848C96.5823 16.848 97.281 16.6667 97.8996 16.304C98.529 15.9413 99.0196 15.424 99.3716 14.752C99.7343 14.08 99.9156 13.3013 99.9156 12.416C99.9156 11.52 99.7343 10.7413 99.3716 10.08C99.0196 9.408 98.5343 8.89067 97.9156 8.528C97.297 8.16533 96.593 7.984 95.8036 7.984C95.0143 7.984 94.3103 8.16533 93.6916 8.528C93.073 8.89067 92.5823 9.408 92.2196 10.08C91.8676 10.7413 91.6916 11.52 91.6916 12.416C91.6916 13.3013 91.8676 14.08 92.2196 14.752C92.5823 15.424 93.073 15.9413 93.6916 16.304C94.321 16.6667 95.025 16.848 95.8036 16.848ZM106.894 10.432H105.054V18H103.598V10.432H102.462V9.232H103.598V8.608C103.598 7.62667 103.848 6.912 104.35 6.464C104.862 6.00533 105.678 5.776 106.798 5.776V6.992C106.158 6.992 105.704 7.12 105.438 7.376C105.182 7.62133 105.054 8.032 105.054 8.608V9.232H106.894V10.432ZM112.159 10.432H110.319V18H108.863V10.432H107.727V9.232H108.863V8.608C108.863 7.62667 109.114 6.912 109.615 6.464C110.127 6.00533 110.943 5.776 112.063 5.776V6.992C111.423 6.992 110.97 7.12 110.703 7.376C110.447 7.62133 110.319 8.032 110.319 8.608V9.232H112.159V10.432Z" fill="#345261"/>
<rect x="0.5" y="2.5" width="19" height="19" rx="3.5" fill="#F5FCFF" stroke="#345261"/>
<path d="M5 11L7 13L9 15L15 9" stroke="#345261" stroke-linecap="round"/>
</svg>
